<svg xmlns="http://www.w3.org/2000/svg" width="20.992" height="21" viewBox="0 0 20.992 21">
  <g id="Maquetas" transform="translate(-43.5 -44)">
    <g id="Modal" transform="translate(-488 -601)">
      <g id="add" transform="translate(355 574.5)">
        <g id="Group_1" data-name="Group 1" transform="translate(35 30)">
          <g id="clip" transform="translate(142 41)">
            <path id="Fill-1" d="M18.743,13.385l-9.795-8.9a3.046,3.046,0,0,0-4.018,0,2.42,2.42,0,0,0,0,3.653L13.469,15.9l.5-.457L5.432,7.678a1.815,1.815,0,0,1,0-2.74,2.284,2.284,0,0,1,3.014,0l9.8,8.9a3.026,3.026,0,0,1,0,4.567,3.808,3.808,0,0,1-5.023,0L2.167,8.363a4.236,4.236,0,0,1,0-6.393,5.332,5.332,0,0,1,7.033,0l8.539,7.763.5-.456L9.7,1.513a6.093,6.093,0,0,0-8.038,0,4.842,4.842,0,0,0,0,7.307L12.716,18.865a4.569,4.569,0,0,0,6.028,0,3.631,3.631,0,0,0,0-5.48" fill="#0076ff" stroke="#0076ff" stroke-width="1" fill-rule="evenodd"/>
          </g>
        </g>
      </g>
    </g>
  </g>
</svg>
