<svg xmlns="http://www.w3.org/2000/svg" width="480" height="512" viewBox="0 0 480 512">
  <path id="thumbs-up" d="M466.27,286.69A94.562,94.562,0,0,0,480,236.85c0-44.015-37.218-85.58-85.82-85.58H357.7a127.682,127.682,0,0,0,8.85-46.54C366.55,31.936,328.86,0,271.28,0c-61.607,0-58.093,94.933-71.76,108.6-22.747,22.747-49.615,66.447-68.76,83.4H32A32,32,0,0,0,0,224V464a32,32,0,0,0,32,32H96a32.013,32.013,0,0,0,30.978-23.95c44.509,1,75.06,39.94,177.8,39.94,7.22,0,15.22.01,22.22.01,77.117,0,111.986-39.423,112.94-95.33a96.413,96.413,0,0,0,17.34-66.99A92.874,92.874,0,0,0,466.27,286.69Zm-61.75,53.83c12.56,21.13,1.26,49.41-13.94,57.57,7.7,48.78-17.608,65.9-53.12,65.9H299.64C228,463.99,181.611,426.17,128,426.17V240h10.92c28.36,0,67.98-70.89,94.54-97.46,28.36-28.36,18.91-75.63,37.82-94.54,47.27,0,47.27,32.98,47.27,56.73,0,39.17-28.36,56.72-28.36,94.54H394.18c21.11,0,37.73,18.91,37.82,37.82s-12.82,37.81-22.27,37.81c13.489,14.555,16.371,45.236-5.21,65.62ZM88,432a24,24,0,1,1-24-24A24,24,0,0,1,88,432Z" fill="#fff"/>
</svg>
