<svg xmlns="http://www.w3.org/2000/svg" width="25" height="25" viewBox="0 0 25 25">
  <g id="Maquetas" transform="translate(-72)">
    <g id="Desktop" transform="translate(-1156 -30)">
      <g id="TOP" transform="translate(165 20)">
        <g id="user-01" transform="translate(1063 10)">
          <circle id="Oval" cx="12.5" cy="12.5" r="12.5" fill="#9b9b9b"/>
          <path id="Fill-1" d="M12.3,15.958l-2.563-1.48a.487.487,0,0,1-.244-.422v-3.01L6,9.062v6.827a.812.812,0,0,0,.406.7L12.305,20v-4.04Zm3.456-4.914v3.013a.487.487,0,0,1-.243.421L12.951,15.96V20l5.9-3.408a.812.812,0,0,0,.406-.7V9.06ZM9.9,10.491l2.487-1.436a.488.488,0,0,1,.487,0l2.465,1.423,3.534-2L13.035,5.109a.811.811,0,0,0-.811,0L6.38,8.483Z" fill="#515151" fill-rule="evenodd"/>
        </g>
      </g>
    </g>
  </g>
</svg>
